<svg aria-labelledby="simpleicons-reddit-icon" role="img" viewBox="0 0 24 24" xmlns="http://www.w3.org/2000/svg"><title id="simpleicons-reddit-icon">Reddit icon</title><path d="M8.371,10.917 C7.457,10.917 6.694,11.682 6.694,12.594 C6.694,13.504 7.457,14.244 8.371,14.244 C9.285,14.244 10.022,13.504 10.022,12.594 C10.022,11.682 9.283,10.917 8.371,10.917 Z M15.604,10.917 C14.69,10.917 13.926,11.682 13.926,12.594 C13.926,13.504 14.69,14.244 15.604,14.244 C16.518,14.244 17.255,13.504 17.255,12.594 C17.255,11.682 16.516,10.917 15.604,10.917 Z M20.152,9.322 L20.152,9.322 L20.152,9.324 C20.464,9.09 20.843,8.961 21.242,8.961 C22.245,8.961 23.06,9.775 23.06,10.777 C23.06,11.362 22.791,11.89 22.341,12.226 C21.952,11.143 21.189,10.155 20.152,9.322 Z M2.711,8.963 L2.712,8.963 L2.712,8.965 C3.088,8.965 3.449,9.084 3.751,9.294 C2.71,10.117 1.939,11.091 1.538,12.17 C1.133,11.829 0.894,11.324 0.894,10.781 C0.894,9.779 1.708,8.963 2.711,8.963 Z M11.928,21.042 C6.022,21.042 1.219,17.837 1.219,13.9 C1.219,13.625 1.242,13.356 1.287,13.091 C0.494,12.598 0,11.729 0,10.777 C0,9.281 1.227,8.064 2.725,8.064 C3.399,8.064 4.028,8.31 4.522,8.746 C6.378,7.555 8.879,6.805 11.634,6.754 L13.446,1.23 L13.85,1.325 C13.85,1.325 13.866,1.325 13.866,1.327 L18.089,2.32 C18.433,1.522 19.227,0.96 20.154,0.96 C21.383,0.96 22.385,1.964 22.385,3.194 C22.385,4.426 21.382,5.428 20.154,5.428 C18.926,5.428 17.924,4.424 17.924,3.198 L14.073,2.286 L12.606,6.763 C15.256,6.868 17.653,7.617 19.45,8.784 C19.944,8.32 20.594,8.065 21.283,8.065 C22.781,8.065 24.001,9.278 24.001,10.776 C24.001,11.763 23.461,12.662 22.623,13.141 C22.652,13.396 22.682,13.635 22.682,13.89 C22.667,17.828 17.876,21.033 11.962,21.033 L11.928,21.042 L11.928,21.042 Z M11.977,18.49 L11.977,18.49 L11.963,18.518 C13.76,18.518 15.016,18.128 15.825,17.32 C15.99,17.14 15.99,16.855 15.825,16.675 C15.646,16.511 15.361,16.511 15.196,16.675 C14.568,17.304 13.519,17.604 11.977,17.604 C10.434,17.604 9.379,17.29 8.749,16.661 C8.574,16.496 8.29,16.496 8.114,16.661 C7.941,16.836 7.941,17.119 8.114,17.293 C8.92,18.101 10.183,18.49 11.977,18.49 Z M20.107,1.855 C19.367,1.855 18.767,2.454 18.767,3.193 C18.767,3.931 19.367,4.533 20.107,4.533 C20.839,4.533 21.437,3.933 21.437,3.199 C21.437,2.466 20.839,1.867 20.09,1.867 L20.107,1.855 L20.107,1.855 Z" id="Shape"></path>
</svg>
